<svg width="448" height="448" viewBox="0 0 448 448" fill="none" xmlns="http://www.w3.org/2000/svg">
<circle cx="224" cy="224" r="224" fill="white"/>
<path d="M224 16C109.31 16 16 109.31 16 224C16 338.69 109.31 432 224 432C338.69 432 432 338.69 432 224C432 109.31 338.69 16 224 16ZM332.25 154.29L197.85 314.29C196.376 316.046 194.541 317.465 192.471 318.45C190.4 319.435 188.143 319.964 185.85 320H185.58C183.337 319.999 181.12 319.527 179.072 318.614C177.023 317.701 175.19 316.367 173.69 314.7L116.09 250.7C114.627 249.148 113.489 247.32 112.743 245.323C111.997 243.325 111.658 241.198 111.745 239.068C111.833 236.937 112.345 234.846 113.252 232.916C114.16 230.986 115.444 229.257 117.029 227.831C118.614 226.404 120.468 225.309 122.482 224.61C124.497 223.91 126.631 223.62 128.759 223.757C130.887 223.894 132.966 224.455 134.874 225.407C136.782 226.359 138.481 227.682 139.87 229.3L185.16 279.62L307.75 133.71C310.5 130.531 314.39 128.561 318.58 128.227C322.771 127.894 326.924 129.222 330.142 131.926C333.361 134.629 335.386 138.491 335.781 142.676C336.175 146.861 334.907 151.033 332.25 154.29Z" fill="#A88C6A"/>
</svg>
